<svg xmlns="http://www.w3.org/2000/svg" id="Слой_1" data-name="Слой 1" viewBox="0 0 160 160"><defs id="defs35"><style id="style33">.cls-1{fill:#0098a1}.cls-2{fill:#001640}.cls-3{fill:#fff}</style></defs><title id="title37">--</title><path class="cls-1" d="M61.3 23.25A29.25 29.25 0 0 0 23 61.91a59.91 59.91 0 0 1 38.3-38.66z" id="path39"/><circle class="cls-2" cx="80" cy="80" r="59.75" id="circle41"/><path class="cls-3" d="M55.18 69.39h22.65a.63.63 0 1 0 0-1.26H55.18a.63.63 0 1 0 0 1.26zm0 6.97h22.65a.63.63 0 0 0 .63-.63.64.64 0 0 0-.63-.64H55.18a.64.64 0 0 0-.63.64.63.63 0 0 0 .63.63zm0-13.94h10.45a.63.63 0 1 0 0-1.26H55.18a.63.63 0 0 0 0 1.26z" id="path43"/><path class="cls-3" d="M99.8 101.43l-3.3-.8a1 1 0 0 1-.61-.57L95.45 99a1 1 0 0 1 0-.81l1.77-2.89a1.79 1.79 0 0 0-.21-2.06l-1.5-1.5a1.78 1.78 0 0 0-2-.18l-.34.21V67.71a.24.24 0 0 0 0-.08.8.8 0 0 0-.17-.23L79.08 51.69a.56.56 0 0 0-.28-.16H54.21a2.38 2.38 0 0 0-2.37 2.37v50.47a2.38 2.38 0 0 0 2.37 2.38h15.56l3.19.77a1 1 0 0 1 .61.58l.44 1.06a1 1 0 0 1 0 .81l-1.76 2.89a1.77 1.77 0 0 0 .2 2.06l1.5 1.5a1.78 1.78 0 0 0 2 .18l2.89-1.77a1.06 1.06 0 0 1 .84 0l1.06.44a1 1 0 0 1 .55.6l.79 3.29a1.83 1.83 0 0 0 1.55 1.34h2.2a1.84 1.84 0 0 0 1.55-1.34l.79-3.29a1 1 0 0 1 .58-.61l1.07-.44a1.06 1.06 0 0 1 .8 0l2.89 1.77a1.79 1.79 0 0 0 2.07-.21l1.49-1.49a1.78 1.78 0 0 0 .19-2L95.49 110a1 1 0 0 1 0-.84l.44-1.07a1 1 0 0 1 .59-.54l3.3-.8a1.81 1.81 0 0 0 1.33-1.55 12 12 0 0 0 0-2.19 1.82 1.82 0 0 0-1.35-1.58zM79.24 53.78l11.89 13.38H80.35c-.57 0-1.11-.89-1.11-1.55zM53.1 104.37V53.85a1.11 1.11 0 0 1 1.11-1.11H78v12.87c0 1.3 1 2.81 2.38 2.81h11.53v24.11l-1.29.79a1 1 0 0 1-.84 0l-1.07-.44a1 1 0 0 1-.54-.6L87.38 89a1.84 1.84 0 0 0-1.55-1.34h-2.2a1.73 1.73 0 0 0-.92.4H61.18a.64.64 0 0 0-.63.64.63.63 0 0 0 .63.63H82l-.72 3a1 1 0 0 1-.58.61l-1.07.45a1 1 0 0 1-.8 0L76 91.55a1.79 1.79 0 0 0-2.07.21l-1.49 1.5A1.75 1.75 0 0 0 72.1 95H61.18a.63.63 0 0 0-.63.63.64.64 0 0 0 .63.64h11.64L74 98.18a1 1 0 0 1 0 .82l-.44 1.06a1 1 0 0 1-.59.54l-3.3.8a1.84 1.84 0 0 0-1.35 1.6v2.19a1.58 1.58 0 0 0 .09.31h-14.2a1.1 1.1 0 0 1-1.11-1.13zm46.77.69a.56.56 0 0 1-.37.43l-3.29.8a2.27 2.27 0 0 0-1.49 1.32l-.41 1a2.28 2.28 0 0 0 .1 2l1.77 2.89a.54.54 0 0 1 0 .51l-1.44 1.44a.53.53 0 0 1-.54 0l-2.89-1.76a2.24 2.24 0 0 0-2-.12l-1 .42a2.27 2.27 0 0 0-1.36 1.49l-.79 3.3a.59.59 0 0 1-.44.37h-2a.59.59 0 0 1-.44-.37l-.79-3.3a2.26 2.26 0 0 0-1.33-1.48l-1-.41a2.06 2.06 0 0 0-.91-.19 2.16 2.16 0 0 0-1.11.28l-2.89 1.77a.54.54 0 0 1-.51 0l-1.45-1.44a.55.55 0 0 1 0-.54l1.77-2.89a2.25 2.25 0 0 0 .11-2l-.41-1a2.26 2.26 0 0 0-1.5-1.36l-3.26-.73a.59.59 0 0 1-.38-.43v-2a.59.59 0 0 1 .38-.43l3.29-.8a2.24 2.24 0 0 0 1.49-1.32l.41-1a2.28 2.28 0 0 0-.1-2l-1.77-2.89a.54.54 0 0 1 0-.51l1.44-1.44a.53.53 0 0 1 .54-.05l2.89 1.77a2.27 2.27 0 0 0 2 .11l1-.41a2.31 2.31 0 0 0 1.36-1.5l.79-3.29a.6.6 0 0 1 .44-.38h2a.6.6 0 0 1 .44.38l.79 3.29a2.26 2.26 0 0 0 1.33 1.48l1 .41a2.28 2.28 0 0 0 2-.09l2.89-1.77a.54.54 0 0 1 .51 0l1.45 1.45a.55.55 0 0 1 .05.54l-1.77 2.88a2.25 2.25 0 0 0-.11 2l.41 1a2.24 2.24 0 0 0 1.5 1.36l3.29.8a.56.56 0 0 1 .37.43 8.25 8.25 0 0 1 0 1 7.83 7.83 0 0 1-.06.98z" id="path45"/><path class="cls-3" d="M84.73 97.12a7 7 0 1 0 7 7 7 7 0 0 0-7-7zm0 12.65a5.7 5.7 0 1 1 5.69-5.69 5.7 5.7 0 0 1-5.69 5.69zm34.68-16.49l-2.08-1.08a.57.57 0 0 1-.21-.35l-.12-.8a.59.59 0 0 1 .11-.36l1.67-1.64a1.43 1.43 0 0 0 .24-1.66l-.75-1.26a1.44 1.44 0 0 0-1.56-.55l-2.24.7a.49.49 0 0 1-.39-.1l-.65-.48a.52.52 0 0 1-.18-.32v-2.35a1.49 1.49 0 0 0-1-1.34 6.77 6.77 0 0 0-.75-.22c-.45-.11-.75-.16-.76-.16a1.47 1.47 0 0 0-1.46.74l-1.09 2.07a.5.5 0 0 1-.35.21l-.8.12a.49.49 0 0 1-.35-.11l-1.64-1.67a1.46 1.46 0 0 0-1.67-.24l-1.26.76a1.43 1.43 0 0 0-.54 1.56l.7 2.23a.61.61 0 0 1-.1.4l-.48.65a.59.59 0 0 1-.33.17h-2.34a1.48 1.48 0 0 0-1.34.95s-.1.29-.21.74c-.11.45-.17.76-.17.76a1.47 1.47 0 0 0 .74 1.47l2.08 1.09a.54.54 0 0 1 .21.34l.12.81a.54.54 0 0 1-.11.35l-1.67 1.64a1.43 1.43 0 0 0-.17 1.65l.75 1.26a1.44 1.44 0 0 0 1.56.55l2.24-.7a.5.5 0 0 1 .39.1l.65.48a.52.52 0 0 1 .18.33v2.34a1.49 1.49 0 0 0 1 1.34 6.77 6.77 0 0 0 .75.22c.45.11.75.16.76.16h.19a1.46 1.46 0 0 0 1.27-.76l1.09-2.07a.54.54 0 0 1 .35-.21l.8-.12a.49.49 0 0 1 .35.11l1.64 1.67a1.45 1.45 0 0 0 1.67.24l1.26-.76a1.43 1.43 0 0 0 .54-1.56l-.7-2.23a.61.61 0 0 1 .1-.4l.48-.65c0-.07.23-.22.33-.17h2.34a1.47 1.47 0 0 0 1.34-.94s.1-.3.21-.75c.11-.45.17-.76.17-.76a1.47 1.47 0 0 0-.81-1.44zm-.65 1.92a6.39 6.39 0 0 1-.19.64s-.09.09-.14.1h-2.34a1.84 1.84 0 0 0-1.38.72l-.43.59a1.73 1.73 0 0 0-.31 1.55l.69 2.24v.11l-1.2.72a.17.17 0 0 1-.14 0l-1.64-1.67a1.74 1.74 0 0 0-1.48-.47l-.73.11a1.78 1.78 0 0 0-1.32.88l-1.09 2.08a.21.21 0 0 1-.15.07 6 6 0 0 1-.65-.14c-.37-.09-.62-.18-.63-.18a.23.23 0 0 1-.1-.14v-2.34a1.74 1.74 0 0 0-.71-1.38l-.59-.43a1.74 1.74 0 0 0-1.11-.38 1.68 1.68 0 0 0-.45.06l-2.23.7h-.1l-.72-1.2a.23.23 0 0 1 0-.14l1.68-1.64a1.74 1.74 0 0 0 .46-1.48l-.11-.72a1.75 1.75 0 0 0-.87-1.32L98.71 91a.28.28 0 0 1-.08-.15s.05-.28.14-.65a6.39 6.39 0 0 1 .19-.64s.1-.09.14-.09h2.34a1.76 1.76 0 0 0 1.37-.72l.43-.59a1.73 1.73 0 0 0 .31-1.55l-.69-2.24v-.11l1.2-.72a.21.21 0 0 1 .14 0l1.64 1.67a1.74 1.74 0 0 0 1.48.47l.73-.11a1.78 1.78 0 0 0 1.32-.88l1.09-2.07a.19.19 0 0 1 .15-.08 6 6 0 0 1 .65.14c.37.09.62.18.63.18a.23.23 0 0 1 .1.14v2.34a1.72 1.72 0 0 0 .72 1.38l.58.43a1.78 1.78 0 0 0 1.56.32l2.23-.7h.1l.72 1.2a.23.23 0 0 1 0 .14l-1.68 1.64a1.74 1.74 0 0 0-.46 1.48l.11.72a1.76 1.76 0 0 0 .87 1.33l2.08 1.08a.28.28 0 0 1 .08.15s-.05.32-.14.69z" id="path47"/><path class="cls-3" d="M108.77 88.9a3.8 3.8 0 1 0 3.79 3.79 3.8 3.8 0 0 0-3.79-3.79zm0 6.32a2.53 2.53 0 1 1 2.53-2.53 2.53 2.53 0 0 1-2.53 2.53z" id="path49"/></svg>