<svg id="Слой_1" data-name="Слой 1" xmlns="http://www.w3.org/2000/svg" viewBox="0 0 160 160"><defs><style>.cls-1{fill:#0098a1}.cls-2{fill:#f8f8f8;stroke:#001640;stroke-miterlimit:10;stroke-width:2px}.cls-3{fill:#002148}</style></defs><title>--</title><path class="cls-1" d="M61.3 23.25A29.25 29.25 0 0 0 23 61.91a59.91 59.91 0 0 1 38.3-38.66z"/><circle class="cls-2" cx="80" cy="80" r="59.75"/><path class="cls-3" d="M62.77 75.17h22.65a.63.63 0 1 0 0-1.26H62.77a.63.63 0 0 0 0 1.26zm0 6.97h22.65a.63.63 0 1 0 0-1.26H62.77a.63.63 0 0 0 0 1.26zm0-13.94h10.45a.63.63 0 1 0 0-1.26H62.77a.63.63 0 1 0 0 1.26z"/><path class="cls-3" d="M101.39 101.21l-3.3-.79a1.08 1.08 0 0 1-.61-.58L97 98.77a1 1 0 0 1 0-.8l1.76-2.89a1.8 1.8 0 0 0-.2-2.07l-1.5-1.49a1.77 1.77 0 0 0-2-.19l-.34.21V67.48a.24.24 0 0 0 0-.08.66.66 0 0 0-.11-.24L80.66 51.47a.51.51 0 0 0-.28-.17H55.8a2.38 2.38 0 0 0-2.37 2.38v50.51a2.38 2.38 0 0 0 2.37 2.38h15.56l3.19.77a1 1 0 0 1 .61.58l.44 1.06a1 1 0 0 1 0 .81l-1.77 2.89a1.77 1.77 0 0 0 .17 2.02l1.5 1.5a1.78 1.78 0 0 0 2 .18l2.89-1.77a1.1 1.1 0 0 1 .84 0l1.06.44a1.08 1.08 0 0 1 .55.6l.79 3.29a1.83 1.83 0 0 0 1.55 1.34h2.2a1.83 1.83 0 0 0 1.62-1.36l.79-3.29a1 1 0 0 1 .58-.61l1.07-.44a1 1 0 0 1 .8 0l2.89 1.76a1.79 1.79 0 0 0 2.07-.21l1.49-1.49a1.78 1.78 0 0 0 .18-2l-1.76-2.89a1.06 1.06 0 0 1 0-.84l.44-1.07a1 1 0 0 1 .6-.54l3.3-.8a1.81 1.81 0 0 0 1.33-1.55v-2.19a1.82 1.82 0 0 0-1.39-1.55zM80.82 53.56l11.9 13.38H81.93c-.56 0-1.11-.88-1.11-1.55zm-26.13 50.59V53.64a1.11 1.11 0 0 1 1.11-1.11h23.76v12.86c0 1.3 1 2.81 2.37 2.81H93.5v24.11l-1.29.79a1 1 0 0 1-.84 0l-1.07-.44a1 1 0 0 1-.54-.6L89 88.79a1.84 1.84 0 0 0-1.55-1.34h-2.2a1.73 1.73 0 0 0-.92.4H62.77a.64.64 0 0 0-.63.64.63.63 0 0 0 .63.63h20.82l-.71 3a1.07 1.07 0 0 1-.58.62l-1.07.44a1 1 0 0 1-.8 0l-2.89-1.77a1.79 1.79 0 0 0-2.07.21L74 93a1.75 1.75 0 0 0-.29 1.77H62.77a.63.63 0 0 0-.63.63.64.64 0 0 0 .63.64h11.64L75.56 98a1 1 0 0 1 0 .84l-.44 1.06a1 1 0 0 1-.59.55l-3.3.79a1.83 1.83 0 0 0-1.34 1.55v2.19a1.58 1.58 0 0 0 .09.31H55.8a1.1 1.1 0 0 1-1.11-1.14zm46.77.69a.56.56 0 0 1-.37.43l-3.29.8a2.27 2.27 0 0 0-1.49 1.32l-.41 1a2.25 2.25 0 0 0 .1 2l1.76 2.89a.51.51 0 0 1 0 .51l-1.44 1.44a.53.53 0 0 1-.54 0l-2.89-1.76a2.2 2.2 0 0 0-2-.11l-1 .41a2.25 2.25 0 0 0-1.36 1.49l-.79 3.3a.59.59 0 0 1-.44.37h-2a.59.59 0 0 1-.44-.37l-.79-3.3a2.29 2.29 0 0 0-1.33-1.48l-1-.41a2.09 2.09 0 0 0-.91-.19 2.16 2.16 0 0 0-1.11.29l-2.89 1.76a.54.54 0 0 1-.51 0l-1.45-1.44a.55.55 0 0 1 0-.54l1.77-2.89a2.29 2.29 0 0 0 .11-2l-.41-1a2.26 2.26 0 0 0-1.5-1.36l-3.29-.8a.59.59 0 0 1-.38-.43v-2a.59.59 0 0 1 .38-.43l3.29-.79a2.28 2.28 0 0 0 1.49-1.33l.41-1a2.31 2.31 0 0 0-.1-2l-1.77-2.89a.56.56 0 0 1 0-.52l1.44-1.44a.55.55 0 0 1 .54 0l2.89 1.77a2.27 2.27 0 0 0 2 .11l1-.41a2.31 2.31 0 0 0 1.36-1.5l.79-3.29a.59.59 0 0 1 .44-.38h2a.6.6 0 0 1 .44.38l.79 3.29a2.24 2.24 0 0 0 1.33 1.48l1 .41a2.28 2.28 0 0 0 2-.09l2.89-1.77a.53.53 0 0 1 .51 0l1.45 1.44a.52.52 0 0 1 0 .54L96 97.3a2.22 2.22 0 0 0-.11 2l.41 1a2.29 2.29 0 0 0 1.5 1.36l3.29.79a.56.56 0 0 1 .37.43 8.25 8.25 0 0 1 0 1 7.83 7.83 0 0 1 0 .96z"/><path class="cls-3" d="M86.32 96.9a7 7 0 1 0 7 7 7 7 0 0 0-7-7zm0 12.65a5.7 5.7 0 1 1 5.68-5.69 5.69 5.69 0 0 1-5.68 5.69zM121 93.06L118.92 92a.57.57 0 0 1-.21-.35l-.12-.8a.53.53 0 0 1 .11-.36l1.67-1.64a1.43 1.43 0 0 0 .24-1.66l-.76-1.26a1.41 1.41 0 0 0-1.55-.54l-2.24.69a.49.49 0 0 1-.39-.1l-.65-.48a.49.49 0 0 1-.18-.32v-2.35a1.46 1.46 0 0 0-.94-1.34s-.3-.1-.75-.22-.75-.16-.76-.16a1.47 1.47 0 0 0-1.46.74l-1.09 2.08a.53.53 0 0 1-.35.2l-.8.12a.53.53 0 0 1-.35-.1l-1.65-1.68a1.44 1.44 0 0 0-1.66-.23l-1.26.75a1.43 1.43 0 0 0-.54 1.56l.7 2.24a.6.6 0 0 1-.1.39l-.48.65a.54.54 0 0 1-.35.17h-2.34a1.48 1.48 0 0 0-1.34 1s-.1.29-.21.74-.17.76-.17.76a1.47 1.47 0 0 0 .74 1.47l2.11 1.03a.59.59 0 0 1 .21.34l.12.81a.61.61 0 0 1-.11.35l-1.67 1.64a1.43 1.43 0 0 0-.24 1.66l.75 1.26a1.44 1.44 0 0 0 1.56.55l2.24-.7a.5.5 0 0 1 .39.1l.65.48a.54.54 0 0 1 .18.33v2.34a1.46 1.46 0 0 0 1 1.34 6.77 6.77 0 0 0 .75.22c.45.11.75.16.76.16h.19a1.46 1.46 0 0 0 1.27-.76l1.09-2.07a.54.54 0 0 1 .35-.21l.8-.12a.49.49 0 0 1 .35.11l1.64 1.67a1.43 1.43 0 0 0 1.66.24l1.27-.76a1.43 1.43 0 0 0 .54-1.56l-.7-2.23a.59.59 0 0 1 .1-.39l.48-.66c0-.07.23-.21.33-.17L120 97a1.47 1.47 0 0 0 1.34-.94s.1-.3.21-.75a6.5 6.5 0 0 0 .16-.76 1.46 1.46 0 0 0-.71-1.49zm-.65 1.94a6.39 6.39 0 0 1-.19.64s-.1.09-.14.1h-2.34a1.78 1.78 0 0 0-1.38.71l-.43.59a1.75 1.75 0 0 0-.31 1.56l.69 2.23v.12l-1.2.71a.17.17 0 0 1-.14 0l-1.64-1.67a1.73 1.73 0 0 0-1.48-.46l-.73.1a1.78 1.78 0 0 0-1.32.88l-1.09 2.08a.23.23 0 0 1-.15.07 6 6 0 0 1-.65-.14c-.37-.09-.62-.18-.63-.18a.23.23 0 0 1-.1-.14v-2.34a1.73 1.73 0 0 0-.72-1.38l-.58-.43a1.74 1.74 0 0 0-1.11-.38 1.68 1.68 0 0 0-.45.06l-2.23.7h-.1l-.72-1.19a.25.25 0 0 1 0-.15l1.68-1.64a1.73 1.73 0 0 0 .46-1.47l-.11-.73a1.73 1.73 0 0 0-.88-1.32l-2.07-1.09a.22.22 0 0 1-.08-.15s0-.27.14-.65a5.68 5.68 0 0 1 .19-.63.19.19 0 0 1 .13-.1h2.35a1.72 1.72 0 0 0 1.36-.72l.44-.59a1.73 1.73 0 0 0 .31-1.55l-.69-2.23v-.12l1.2-.72a.22.22 0 0 1 .14 0l1.67 1.62a1.74 1.74 0 0 0 1.48.47l.73-.11a1.78 1.78 0 0 0 1.32-.88l1.09-2.07a.19.19 0 0 1 .14-.08l.66.14c.37.09.62.18.63.18a.23.23 0 0 1 .1.14v2.35a1.73 1.73 0 0 0 .71 1.37l.59.44a1.81 1.81 0 0 0 1.56.31l2.23-.7h.1l.72 1.2a.22.22 0 0 1 0 .14l-1.68 1.64a1.75 1.75 0 0 0-.46 1.48l.11.73a1.76 1.76 0 0 0 .87 1.32l2.08 1.08a.31.31 0 0 1 .08.15l-.16.7z"/><path class="cls-3" d="M110.35 88.68a3.8 3.8 0 1 0 3.8 3.79 3.79 3.79 0 0 0-3.8-3.79zm0 6.32a2.53 2.53 0 1 1 2.53-2.53 2.53 2.53 0 0 1-2.53 2.53z"/></svg>