<svg id="Слой_1" data-name="Слой 1" xmlns="http://www.w3.org/2000/svg" viewBox="0 0 160 160"><defs><style>.cls-1{fill:#0098a1}.cls-2{fill:#001640}.cls-3{fill:#fff}</style></defs><title>--</title><path class="cls-1" d="M98.7 136.75A29.25 29.25 0 0 0 137 98.09a59.91 59.91 0 0 1-38.3 38.66z"/><circle class="cls-2" cx="80" cy="80" r="59.75"/><path class="cls-3" d="M56.79 62.43H67.6a.63.63 0 1 0 0-1.25H56.79a.63.63 0 1 0 0 1.25zm14.01 2.5h-14a.63.63 0 1 0 0 1.25h14a.63.63 0 1 0 0-1.25zm-8.6 3.75h-5.41a.63.63 0 1 0 0 1.25h5.41a.63.63 0 0 0 0-1.25zm12.58-6.25H85.6a.63.63 0 0 0 0-1.25H74.78a.63.63 0 0 0 0 1.25zm0 3.75h14a.63.63 0 1 0 0-1.25h-14a.63.63 0 0 0 0 1.25zm6.03 3.13a.62.62 0 0 0-.62-.63h-5.41a.63.63 0 0 0 0 1.25h5.41a.62.62 0 0 0 .62-.62zm28.6 33.25h-1.61v-12.3h1.78a.63.63 0 0 0 .63-.62v-6.57a.63.63 0 0 0-.63-.62H103c-2 0-3.43 1.09-3.43 2.59v2.63a2.74 2.74 0 0 0 2.4 2.45c.13 1.66.37 8.13-3.33 12.44H95a2.61 2.61 0 0 0-2.59 2.69v1.87a.63.63 0 0 0 .62.63h18.38a.63.63 0 0 0 .63-.63v-2a2.54 2.54 0 0 0-2.63-2.56zm-8.56-14.89V85c0-.76.94-1.34 2.18-1.34H109V89h-5.79c-1.32 0-2.36-.59-2.36-1.33zm2.42 2.59h3.28v12.3h-6.27c3.24-4.47 3.13-10.3 2.99-12.3zm7.49 16.24H93.63v-1.25a1.36 1.36 0 0 1 1.37-1.44h14.44a1.28 1.28 0 0 1 1.35 1.34zM93.77 88.36c-.72 0-.76-1.12-.76-1.35V85.7c0-.49.1-1.32.76-1.32a.63.63 0 1 0 0-1.25c-1.22 0-2 1-2 2.57V87c0 1.55.81 2.6 2 2.6a.63.63 0 1 0 0-1.25z"/><path class="cls-3" d="M96.33 96.83A2.63 2.63 0 0 0 99 94.2V78.51a2.63 2.63 0 0 0-2.24-2.59V54.13a1.88 1.88 0 0 0-1.87-1.88h-45A1.88 1.88 0 0 0 48 54.13v27.48a1.88 1.88 0 0 0 1.88 1.88h8.32a7.17 7.17 0 0 0 1.87 3.57 14.86 14.86 0 0 0 3.7 5.79 5.63 5.63 0 0 1-3.51 3.72 8.61 8.61 0 0 1-1.32.36c-2.68.64-7.67 1.83-8.92 6.51a.63.63 0 0 0 .44.77h.16a.63.63 0 0 0 .61-.46c1.06-4 5.41-5 8-5.62a10.72 10.72 0 0 0 1.53-.43 6.73 6.73 0 0 0 4.31-5 .63.63 0 0 0-.21-.59 13.46 13.46 0 0 1-3.66-5.63.57.57 0 0 0-.13-.21 5.59 5.59 0 0 1-1.69-3.38 1.25 1.25 0 0 1 .62-1.15.63.63 0 0 0 .3-.51c.23-5.28 4-9.44 8.55-9.46v-.63l.13.63c4.63.07 8.36 4.31 8.49 9.67a.66.66 0 0 0 .23.46 1.26 1.26 0 0 1 .44 1A5 5 0 0 1 77 85.77a.75.75 0 0 0-.1.2 13.44 13.44 0 0 1-4.09 6.38.62.62 0 0 0-.22.61 6.72 6.72 0 0 0 4.3 5 9.75 9.75 0 0 0 1.62.43c2.57.56 6.87 1.49 7.92 5.41a.64.64 0 0 0 .77.44.63.63 0 0 0 .44-.77c-1.25-4.65-6.21-5.72-8.87-6.3a11.48 11.48 0 0 1-1.38-.35 5.64 5.64 0 0 1-3.5-3.72 9.69 9.69 0 0 0 .86-.84h6.35a.63.63 0 0 0 .63-.62v-1.81a2.52 2.52 0 0 0-2.5-2.59h-1.49c.1-.26.19-.52.28-.79a6.6 6.6 0 0 0 1.37-3h10.44v8.77a4.57 4.57 0 0 0 4.56 4.57zm-17.1-8.34a1.27 1.27 0 0 1 1.25 1.34V91h-4.74a15.69 15.69 0 0 0 1.47-2.49zm-21-6.25h-8.36a.63.63 0 0 1-.63-.63V54.13a.63.63 0 0 1 .63-.63h45a.63.63 0 0 1 .62.63v21.75h-1.1a4.46 4.46 0 0 0-1.42.25V56.62a.62.62 0 0 0-.62-.62h-40a.62.62 0 0 0-.62.62v22.49a.63.63 0 0 0 .62.63h6.88c-.06.37-.1.74-.13 1.12a2.43 2.43 0 0 0-.9 1.38zm10.82-11.72h-.17c-4.41 0-8.15 3.36-9.37 8H53V57.25h38.72v19.51a4.62 4.62 0 0 0-1.43 1.73H78.36c-1.21-4.58-4.89-7.91-9.31-7.97zm10.31 11.72a2.32 2.32 0 0 0-.59-1.1 10.71 10.71 0 0 0-.15-1.4H89.9a5.34 5.34 0 0 0-.07.71v1.79zm11.72 10V80.45a3.47 3.47 0 0 1 .16-1 5.71 5.71 0 0 1 1.62-1.94 3.2 3.2 0 0 1 1.53-.4h1.94a1.38 1.38 0 0 1 1.38 1.38V94.2a1.38 1.38 0 0 1-1.38 1.38h-1.94a3.32 3.32 0 0 1-3.31-3.32z"/><path class="cls-3" d="M95.47 94.26a.63.63 0 0 0 .62-.63V79.16a.63.63 0 0 0-1.25 0v14.47a.63.63 0 0 0 .63.63z"/></svg>