<svg id="Слой_1" data-name="Слой 1" xmlns="http://www.w3.org/2000/svg" viewBox="0 0 160 160"><defs><style>.cls-1{fill:#0098a1}.cls-2{fill:#f8f8f8;stroke:#001640;stroke-miterlimit:10;stroke-width:2px}.cls-3{fill:#002148}</style></defs><title>--</title><path class="cls-1" d="M99.7 136.75A29.25 29.25 0 0 0 138 98.09a59.91 59.91 0 0 1-38.3 38.66z"/><circle class="cls-2" cx="80" cy="80" r="59.75"/><path class="cls-3" d="M59 63.35h10.84a.63.63 0 1 0 0-1.25H59a.63.63 0 0 0 0 1.25zm14 2.5H59a.63.63 0 0 0 0 1.25h14a.63.63 0 1 0 0-1.25zm-8.56 3.75H59a.63.63 0 0 0 0 1.25h5.41a.63.63 0 0 0 0-1.25zM77 63.35h10.84a.63.63 0 0 0 0-1.25H77a.63.63 0 0 0 0 1.25zm0 3.75h14a.63.63 0 0 0 0-1.25H77a.63.63 0 0 0 0 1.25zm6.06 3.12a.63.63 0 0 0-.63-.62H77a.63.63 0 0 0 0 1.25h5.41a.63.63 0 0 0 .65-.63zm28.6 33.26H110v-12.3h1.79a.62.62 0 0 0 .62-.62V84a.62.62 0 0 0-.62-.62h-6.56c-2 0-3.43 1.09-3.43 2.59v2.63a2.74 2.74 0 0 0 2.4 2.45c.14 1.65.37 8.13-3.33 12.44h-3.7a2.61 2.61 0 0 0-2.59 2.69V108a.63.63 0 0 0 .62.63h18.39a.63.63 0 0 0 .62-.63v-2a2.53 2.53 0 0 0-2.55-2.52zm-8.57-14.89V86c0-.77.94-1.34 2.18-1.34h5.93v5.31h-5.79c-1.28-.04-2.32-.64-2.32-1.38zm2.42 2.59h3.28v12.3h-6.27c3.24-4.48 3.14-10.31 2.99-12.3zm7.49 16.24H95.87v-1.25a1.36 1.36 0 0 1 1.34-1.44h14.45a1.28 1.28 0 0 1 1.34 1.34zM96 89.27c-.72 0-.76-1.12-.76-1.34v-1.31c0-.5.1-1.32.76-1.32a.63.63 0 1 0 0-1.25c-1.22 0-2 1-2 2.57v1.31c0 1.55.81 2.59 2 2.59a.63.63 0 1 0 0-1.25z"/><path class="cls-3" d="M98.57 97.75a2.63 2.63 0 0 0 2.63-2.63V79.43a2.63 2.63 0 0 0-2.2-2.59V55a1.87 1.87 0 0 0-1.87-1.87h-45a1.88 1.88 0 0 0-1.9 1.87v27.53a1.88 1.88 0 0 0 1.88 1.88h8.32A7.17 7.17 0 0 0 62.3 88a14.82 14.82 0 0 0 3.7 5.76 5.63 5.63 0 0 1-3.5 3.73 11 11 0 0 1-1.32.36c-2.68.64-7.68 1.83-8.93 6.51a.63.63 0 0 0 .44.77h.16a.64.64 0 0 0 .61-.47c1.06-4 5.41-5 8-5.61a10.52 10.52 0 0 0 1.54-.41 6.74 6.74 0 0 0 4.31-5 .63.63 0 0 0-.2-.59 13.57 13.57 0 0 1-3.67-5.63.55.55 0 0 0-.12-.21 5.58 5.58 0 0 1-1.7-3.38 1.24 1.24 0 0 1 .67-1.19.63.63 0 0 0 .3-.51c.23-5.28 4-9.44 8.55-9.47v-.62l.13.63c4.63.06 8.36 4.31 8.5 9.67a.61.61 0 0 0 .22.46 1.22 1.22 0 0 1 .44 1 5.1 5.1 0 0 1-1.23 2.84.49.49 0 0 0-.11.2A13.49 13.49 0 0 1 75 93.27a.64.64 0 0 0-.22.61 6.72 6.72 0 0 0 4.31 5 9.32 9.32 0 0 0 1.61.43c2.57.56 6.87 1.49 7.92 5.41a.64.64 0 0 0 .77.44.63.63 0 0 0 .44-.77c-1.25-4.65-6.2-5.73-8.87-6.3a9.52 9.52 0 0 1-1.38-.36A5.59 5.59 0 0 1 76.1 94a11.18 11.18 0 0 0 .85-.84h6.39a.63.63 0 0 0 .63-.62v-1.79a2.52 2.52 0 0 0-2.5-2.6H80c.1-.26.19-.52.28-.78a6.65 6.65 0 0 0 1.37-3h10.42v8.77a4.58 4.58 0 0 0 4.57 4.57zm-17.1-8.35a1.28 1.28 0 0 1 1.25 1.35v1.15H78a15.35 15.35 0 0 0 1.47-2.5zm-21-6.24h-8.36a.63.63 0 0 1-.63-.63V55a.63.63 0 0 1 .63-.62h45a.62.62 0 0 1 .62.62v21.8h-1.09a4.52 4.52 0 0 0-1.43.25V57.54a.62.62 0 0 0-.62-.62h-40a.63.63 0 0 0-.63.62V80a.63.63 0 0 0 .63.63h6.87c-.06.37-.1.74-.13 1.12a2.37 2.37 0 0 0-.88 1.41zm10.82-11.72h-.16c-4.42 0-8.16 3.37-9.38 8h-6.52V58.17H94v19.51a4.62 4.62 0 0 0-1.43 1.73H80.6c-1.2-4.59-4.89-7.91-9.31-7.97zM81.6 83.16a2.39 2.39 0 0 0-.58-1.1c0-.48-.08-.94-.15-1.4h11.27a5.34 5.34 0 0 0-.07.71v1.79zm11.72 10V81.37a3.15 3.15 0 0 1 .17-1 5.48 5.48 0 0 1 1.61-1.94 3.21 3.21 0 0 1 1.54-.4h1.93a1.38 1.38 0 0 1 1.43 1.4v15.69a1.38 1.38 0 0 1-1.38 1.38h-1.98a3.32 3.32 0 0 1-3.32-3.32z"/><path class="cls-3" d="M97.71 95.18a.63.63 0 0 0 .63-.63V80.08a.63.63 0 1 0-1.25 0v14.47a.63.63 0 0 0 .62.63z"/></svg>