<svg id="Слой_1" xmlns="http://www.w3.org/2000/svg" viewBox="-217 340.9 160 160"><style>.st0{fill:#0098a1}.st1{fill:#f8f8f8;stroke:#001640;stroke-width:2;stroke-miterlimit:10}.st2{fill:#002148}</style><title>--</title><path class="st0" d="M-117.3 478.6c14.8 6.4 32-.5 38.4-15.4 3.2-7.4 3.2-15.9-.1-23.3-5.8 18.4-20.1 32.7-38.3 38.7z"/><circle class="st1" cx="-137" cy="420.9" r="59.8"/><path class="st2" d="M-112.6 451.6c-.9 0-1.7-.8-1.7-1.7 0-.9.8-1.7 1.7-1.7.9 0 1.7.8 1.7 1.7 0 .9-.7 1.7-1.7 1.7zm0-2.2c-.2 0-.4.2-.4.4s.2.4.4.4.4-.2.4-.4-.1-.4-.4-.4zm0-1.7c-.4 0-.6-.3-.6-.6v-9.9c0-.4.2-.7.6-.7.4 0 .7.2.7.6v10.1c0 .2-.3.5-.7.5zM-125 446c.4 0 .7-.3.7-.7v-9.8c0-.4-.3-.7-.7-.7h-29.8c-.4 0-.7.3-.7.7v9.8c0 .4.3.7.7.7h29.8zm-29.2-9.8h28.5v8.4h-28.5v-8.4z"/><path class="st2" d="M-155.9 453.2h44.3c3.8 0 6.8-3.1 6.8-6.8v-8.7c0-.4-.3-.7-.7-.7h-6.7c-.4 0-.7.3-.7.7 0 .4.3.7.7.7h6v8.1c0 3-2.5 5.5-5.5 5.5s-5.5-2.5-5.5-5.5v-57.1c0-.4-.3-.7-.7-.7h-44.2c-.4 0-.7.3-.7.7v9.4c0 .4.3.7.7.7.4 0 .7-.3.7-.7v-8.7h42.9v56.4c0 1.8.7 3.6 2.1 4.9l.6.6h-40.1c-3 0-5.5-2.5-5.5-5.5V432c0-.4-.3-.7-.7-.7-.4 0-.7.3-.7.7v14.3c.1 3.8 3.1 6.9 6.9 6.9z"/><path class="st2" d="M-125.6 428.7h-8.6c-.4 0-.7.3-.7.7 0 .4.3.7.7.7h8.6c.4 0 .7-.3.7-.7 0-.4-.3-.7-.7-.7zm0-6.2h-5.5c-.4 0-.7.3-.7.7 0 .4.3.7.7.7h5.5c.4 0 .7-.3.7-.7 0-.4-.3-.7-.7-.7zm0-14.4h-6.1c-.4 0-.7.3-.7.7 0 .4.3.7.7.7h6.1c.4 0 .7-.3.7-.7 0-.4-.3-.7-.7-.7zm0-6.1h-6.1c-.4 0-.7.3-.7.7 0 .4.3.7.7.7h6.1c.4 0 .7-.3.7-.7 0-.4-.3-.7-.7-.7zm0-6.2h-10.7c-.4 0-.7.3-.7.7 0 .4.3.7.7.7h10.7c.4 0 .7-.3.7-.7 0-.4-.3-.7-.7-.7zm-25.3 35.4c-1.5 0-2.5-.1-2.6-.1-.1 0-.3 0-.4-.1-.5-.1-1.2-.2-1.7-.6-1-.9-.6-1.7-.3-2.1.6-.7 1-.7 1.9-.7 2.7-.1 7.8-.7 10.3-3.9.6-.6.6-1.6.5-1.8l-.1-.1c0-.1-.1-.2-.2-.3-.6-1.1-2.4-4.3.2-7.4.8-1 2-1.5 3.2-1.5 1.3 0 2.5.5 3.6 1.4 1.5 1.2 2.5 3.5 2.6 5.8v.3c0 2-.7 3.9-2.1 5.4-4.3 4.9-11.2 5.7-14.9 5.7zm-4-2.1l.2.2c.2.2.6.2.9.3.1 0 .3 0 .4.1.4.1 10.7 1.3 16.3-5.3 1.5-1.7 1.7-3.5 1.7-4.4v-.2c0-1.9-.9-3.8-2-4.7-1-.9-2-1.1-2.7-1.1-.8 0-1.6.4-2.1 1-2 2.4-.6 4.8-.1 5.9.1.1.1.2.2.3.6.9.3 2.5-.6 3.5-2.9 3.5-8.3 4.2-11.4 4.3-.6-.1-.6-.1-.8.1zm-5.5 0c-1.2 0-2.4-.3-3.6-.8-1.4-.7-3.3-2-4.3-4.8-3.3-9.1 3.7-18 3.7-18.1l.1-.1c.1-.1.2-.2.3-.4.3-.3.6-.7 1-.9.3-.2.6-.2 1-.2.6 0 1 .4 1.1 1 .2.6.1 1-.3 1.9-1.3 2.4-3.2 7.1-1.9 10.9.3.7 1.1 1.3 1.4 1.3h.3c1.3 0 5.1 0 6.5 3.9.4 1 .4 2.1-.1 3.1-.5 1.2-1.7 2.3-3.2 2.9-.5.2-1.2.3-2 .3zm-3.1-22.8c-.6.7-6.4 8.8-3.5 16.7.8 2.3 2.4 3.5 3.5 4 1.5.7 3.4.9 4.7.4 1.2-.5 2-1.2 2.4-2.1.3-.7.3-1.4 0-2.1-1.1-3-3.9-3-5.2-3h-.3c-1 0-2.3-1-2.8-2.2-1.5-4.3.6-9.4 1.9-12 .3-.5.3-.6.2-.8h-.2c-.2.1-.4.3-.5.5.1.2 0 .4-.2.6zm25.8 5.9h-.2c-.8-.2-1.1-.4-1.6-1.2-2.8-4.2-5.7-6.6-8.6-7.1-.8-.1-1.7.3-1.9.6l-.1.1c-1.6 3-3.8 4.3-6.6 3.8-1.1-.2-2.1-.8-2.8-1.7-.8-1.1-1-2.5-.8-4.2.5-3 3.6-6.2 7.8-6.3h.7v.1c.2 0 .5.1.7.1.1 0 .3 0 .4.1 9.4 1.6 13.8 12.2 13.8 12.3.1.2.1.3.1.4.2.5.4 1 .3 1.6v.1c-.1 1.1-.8 1.3-1.2 1.3zm-10.7-9.8c.2 0 .4 0 .6.1 3.3.5 6.5 3.1 9.5 7.7.2.4.3.5.4.5 0 0 .1 0 .2.1 0 0 0-.1.1-.2 0-.3-.1-.6-.2-1 0-.1-.1-.3-.1-.4 0 0-4.1-9.9-12.7-11.3-.1 0-.3 0-.4-.1-.3 0-.6-.1-.9-.1h-1c-3.5.4-5.5 3.1-5.8 5-.2 1.3 0 2.3.5 3.1.4.6 1.1 1 1.9 1.2 2.8.5 4.3-1.5 5.1-3.1l.1-.2c.5-.7 1.6-1.3 2.7-1.3z"/><path class="st2" d="M-151.4 420.9c-1.7 0-3.4-.8-4.4-2.3-.8-1.1-1.1-2.5-.9-3.9.2-1.4 1-2.7 2.2-3.5 1.2-.8 2.6-1.1 4-.9 1.4.2 2.6 1 3.5 2.2 1.7 2.4 1.1 5.8-1.3 7.5-.9.6-2 .9-3.1.9zm0-9.3c-.8 0-1.6.2-2.2.7-.9.6-1.5 1.6-1.7 2.6-.2 1 .1 2 .7 2.9 1.2 1.8 3.7 2.2 5.5 1 1.8-1.2 2.2-3.7.9-5.5-.6-.9-1.5-1.4-2.5-1.6-.2-.1-.4-.1-.7-.1z"/></svg>