<svg id="Слой_1" data-name="Слой 1" xmlns="http://www.w3.org/2000/svg" viewBox="0 0 160 160"><defs><style>.cls-1{fill:#0098a1}.cls-2{fill:#001640}.cls-3{fill:#fff}</style></defs><title>--</title><path class="cls-1" d="M26.62 53.1a29.25 29.25 0 0 0 .28 54.39 59.87 59.87 0 0 1-.28-54.39z"/><circle class="cls-2" cx="80" cy="80" r="59.75"/><path class="cls-3" d="M103.28 50.6a.63.63 0 0 0-.63-.63H47.88a.63.63 0 1 0 0 1.26h54.77a.63.63 0 0 0 .63-.63zM91.37 69a.63.63 0 0 0 .63-.63v-8.11a.59.59 0 0 0 0-.26.57.57 0 0 0-.34-.34.49.49 0 0 0-.24 0h-8.1a.63.63 0 1 0 0 1.25h6.54L78.49 72.26 69.26 63a.63.63 0 0 0-.84 0l-8.3 6.93a2.54 2.54 0 0 0-1.67-.63A2.59 2.59 0 1 0 61 71.89a2.52 2.52 0 0 0-.19-1l7.93-6.61L78 73.59a.63.63 0 0 0 .45.19.59.59 0 0 0 .44-.19l11.86-11.81v6.54a.63.63 0 0 0 .62.68zm-32.92 4.23a1.34 1.34 0 1 1 1.34-1.34 1.34 1.34 0 0 1-1.34 1.34zm53.67 24.06a.63.63 0 0 0-.63.62v10.61a.25.25 0 0 1-.26.25H80.31a.26.26 0 0 1-.26-.25V97.91a.63.63 0 0 0-1.25 0v2.87l-3.24-1.69a.45.45 0 0 0-.19 0 .62.62 0 0 0 .52-.61V86.94a.63.63 0 1 0-1.25 0v11.49a.62.62 0 0 0 .52.61.45.45 0 0 0-.19 0L63.7 105a.63.63 0 0 0-.27.85.64.64 0 0 0 .85.26l11-5.75 3.54 1.85v6.32a1.52 1.52 0 0 0 1.49 1.47h30.92a1.52 1.52 0 0 0 1.52-1.51V97.91a.63.63 0 0 0-.63-.62z"/><path class="cls-3" d="M90.66 85.05v.49a.63.63 0 0 1-.63.63.63.63 0 0 1-.63-.63v-.49H52.71a2.23 2.23 0 0 1-2.23-2.23V55.43a.63.63 0 0 1 1.25 0v27.39a1 1 0 0 0 1 1H89.4v-.91a1.52 1.52 0 0 1 1.51-1.51h7.89V55.43a.63.63 0 0 1 1.25 0v25.95h.58a1.52 1.52 0 0 1 1.51 1.51v2.65a.63.63 0 1 1-1.25 0v-2.65a.26.26 0 0 0-.26-.25h-9.72a.25.25 0 0 0-.25.25v2.16zm20.57 2.52H80.31a1.52 1.52 0 0 0-1.51 1.51v4.38c0 2.77 9.1 5.93 17.08 5.93s16.87-3.1 16.87-5.93v-4.38a1.52 1.52 0 0 0-1.52-1.51zm.26 5.89c0 1.32-6.92 4.67-15.61 4.67s-15.83-3.39-15.83-4.67v-4.38a.26.26 0 0 1 .26-.26h30.92a.26.26 0 0 1 .26.26zm-15.61 8.61c.84 0 1.72 0 2.59-.1a.63.63 0 0 0 .58-.67.61.61 0 0 0-.68-.58 32.24 32.24 0 0 1-5.2 0 .63.63 0 0 0-.67.57.62.62 0 0 0 .57.67c.93.04 1.93.11 2.81.11z"/></svg>