<svg id="Слой_1" data-name="Слой 1" xmlns="http://www.w3.org/2000/svg" viewBox="0 0 160 160"><defs><style>.cls-1{fill:#0098a1}.cls-2{fill:#f8f8f8;stroke:#001640;stroke-miterlimit:10;stroke-width:2px}.cls-3{fill:#002148}</style></defs><title>--</title><path class="cls-1" d="M25.62 54.1a29.25 29.25 0 0 0 .28 54.39 59.87 59.87 0 0 1-.28-54.39z"/><circle class="cls-2" cx="80" cy="80" r="59.75"/><path class="cls-3" d="M104.25 51.32a.63.63 0 0 0-.63-.62H48.85a.63.63 0 0 0 0 1.25h54.77a.63.63 0 0 0 .63-.63zM92.34 69.67A.63.63 0 0 0 93 69v-8a.64.64 0 0 0 0-.24.57.57 0 0 0-.34-.34.6.6 0 0 0-.24 0h-8a.63.63 0 1 0 0 1.25h6.54L79.46 73l-9.22-9.22a.63.63 0 0 0-.85 0l-8.3 6.92a2.58 2.58 0 1 0 .92 2 2.56 2.56 0 0 0-.19-1l7.93-6.6L79 74.32a.66.66 0 0 0 .45.18.62.62 0 0 0 .44-.18L91.72 62.5V69a.63.63 0 0 0 .62.67zM59.42 74a1.34 1.34 0 1 1 1.34-1.34A1.34 1.34 0 0 1 59.42 74zm53.67 24a.63.63 0 0 0-.63.63v10.6a.26.26 0 0 1-.25.26H81.28a.26.26 0 0 1-.26-.26V98.64a.63.63 0 1 0-1.25 0v2.87l-3.24-1.7a.67.67 0 0 0-.19 0 .61.61 0 0 0 .52-.6V87.66a.63.63 0 0 0-1.25 0v11.5a.61.61 0 0 0 .52.6.67.67 0 0 0-.19 0l-11.27 5.91a.61.61 0 0 0-.26.84.63.63 0 0 0 .84.27l11-5.76 3.53 1.85v6.32a1.52 1.52 0 0 0 1.51 1.51h30.93a1.52 1.52 0 0 0 1.51-1.51V98.64a.63.63 0 0 0-.64-.64z"/><path class="cls-3" d="M101.6 82.11h-.6v-26a.63.63 0 0 0-1.25 0v26h-7.87a1.51 1.51 0 0 0-1.51 1.51v.9H53.68a1 1 0 0 1-1-1V56.15a.63.63 0 0 0-1.25 0v27.39a2.24 2.24 0 0 0 2.23 2.24h36.71v.49a.63.63 0 0 0 1.26 0v-2.65a.25.25 0 0 1 .25-.26h9.72a.26.26 0 0 1 .26.26v2.65a.63.63 0 0 0 1.25 0v-2.65a1.5 1.5 0 0 0-1.51-1.51zm10.61 6.18H81.28a1.52 1.52 0 0 0-1.51 1.51v4.38c0 2.77 9.1 5.93 17.08 5.93s16.87-3.1 16.87-5.93V89.8a1.52 1.52 0 0 0-1.51-1.51zm.25 5.89c0 1.32-6.92 4.68-15.61 4.68S81 95.46 81 94.18V89.8a.26.26 0 0 1 .26-.26h30.93a.26.26 0 0 1 .25.26zm-15.61 8.62c.85 0 1.72 0 2.59-.11a.61.61 0 0 0 .56-.69.6.6 0 0 0-.67-.57 32.36 32.36 0 0 1-5.21 0 .64.64 0 0 0-.67.57.63.63 0 0 0 .57.68c.98.08 1.92.12 2.83.12z"/></svg>